****** Everything.Will.be.Fine.2010.DVDRiP.XviD.SWESUB-Zen_Bud.avi ********

Format                           : AVI
File size                        : 706 MiB
Duration                         : 1h 29mn
Overall bit rate                 : 1 097 Kbps

Video

Format                           : MPEG-4 Visual
Codec ID/Hint                    : XviD
Duration                         : 1h 29mn
Bit rate                         : 972 Kbps
Width                            : 720 pixels
Height                           : 436 pixels
Display aspect ratio             : 2.35:1
Stream size                      : 625 MiB (89%)
Writing library                  : XviD 1.1.2 (UTC 2006-11-01)

Audio

Format                           : MPEG Audio
Codec ID/Hint                    : MP3
Duration                         : 1h 29mn
Bit rate                         : 112 Kbps
Channel(s)                       : 2 channels
Sampling rate                    : 48.0 KHz
Stream size                      : 72.0 MiB (10%)
Language                         : Danish




A writer-director known for becoming obsessed with his own stories, Jacob Falk stumbles upon photographs of prisoners of war being tortured by Danish soldiers. Suspecting a political conspiracy, Falk falls into a frenetic chase to reveal the mystery behind the photos which leads him to discover a truth more disturbing than he imagined …